<?xml version="1.0" encoding="utf-8"?>
<!-- Generator: Adobe Illustrator 24.3.0, SVG Export Plug-In . SVG Version: 6.00 Build 0)  -->
<svg version="1.1" id="Layer_1" xmlns="http://www.w3.org/2000/svg" xmlns:xlink="http://www.w3.org/1999/xlink" x="0px" y="0px"
	 viewBox="0 0 800 800" style="enable-background:new 0 0 800 800;" xml:space="preserve">
<path d="M30.1,167.2c0-19,6.6-34.9,19.8-47.6c13.2-12.7,29.4-19,48.4-19s35.3,6.3,48.8,19s20.2,28.6,20.2,47.6
	c0,18.5-6.7,34.1-20.2,46.8s-29.8,19-48.8,19s-35.2-6.3-48.4-19C36.7,201.3,30.1,185.7,30.1,167.2z"/>
<rect x="38.4" y="306.3" style="fill:#1D83EC;" width="123.2" height="392.7"/>
<path style="fill:#1D83EC;" d="M247.9,699V96.8H445c96.1-1.2,175.2,26.3,237.2,82.6c62,56.3,92.4,128.5,91.2,216.7
	c1.2,87.6-29.5,160.3-92.1,218C618.6,671.9,539.9,700.2,445,699H247.9z M371.1,587.7h73c60.8,0,109.8-17.5,146.9-52.5
	c37.1-35,55.6-81.3,55.6-139.1c0-58.4-18.2-104.3-54.7-137.8c-36.5-33.4-85.8-50.2-147.8-50.2h-73V587.7z"/>
</svg>
