<svg width="414" height="252" viewBox="0 0 414 252" fill="none" xmlns="http://www.w3.org/2000/svg">
<path d="M158.027 28.8717C175.31 28.8717 189.32 42.9221 189.32 60.254V75.0037H116.095C98.8129 75.0037 84.8027 60.9534 84.8027 43.6214V28.8717H158.027Z" fill="url(#paint0_linear_227:1925)"/>
<path d="M26.9116 227.836H393.347C404.753 227.836 414 237.109 414 248.548H47.5647C36.1583 248.548 26.9116 239.275 26.9116 227.836Z" fill="url(#paint1_linear_227:1925)"/>
<path fill-rule="evenodd" clip-rule="evenodd" d="M205.72 15.6338C206.482 15.6338 207.099 15.0143 207.099 14.2503C207.099 13.4862 206.482 12.8667 205.72 12.8667C204.958 12.8667 204.34 13.4862 204.34 14.2503C204.34 15.0143 204.958 15.6338 205.72 15.6338ZM207.099 19.7843C207.099 20.5484 206.482 21.1678 205.72 21.1678C204.958 21.1678 204.34 20.5484 204.34 19.7843C204.34 19.0202 204.958 18.4008 205.72 18.4008C206.482 18.4008 207.099 19.0202 207.099 19.7843ZM205.72 26.7018C206.482 26.7018 207.099 26.0824 207.099 25.3183C207.099 24.5542 206.482 23.9348 205.72 23.9348C204.958 23.9348 204.34 24.5542 204.34 25.3183C204.34 26.0824 204.958 26.7018 205.72 26.7018ZM207.099 30.8523C207.099 31.6164 206.482 32.2358 205.72 32.2358C204.958 32.2358 204.34 31.6164 204.34 30.8523C204.34 30.0882 204.958 29.4688 205.72 29.4688C206.482 29.4688 207.099 30.0882 207.099 30.8523ZM205.72 37.7698C206.482 37.7698 207.099 37.1504 207.099 36.3863C207.099 35.6222 206.482 35.0028 205.72 35.0028C204.958 35.0028 204.34 35.6222 204.34 36.3863C204.34 37.1504 204.958 37.7698 205.72 37.7698ZM205.72 43.3038C206.482 43.3038 207.099 42.6844 207.099 41.9203C207.099 41.1562 206.482 40.5368 205.72 40.5368C204.958 40.5368 204.34 41.1562 204.34 41.9203C204.34 42.6844 204.958 43.3038 205.72 43.3038ZM212.618 41.9203C212.618 42.6844 212 43.3038 211.238 43.3038C210.476 43.3038 209.859 42.6844 209.859 41.9203C209.859 41.1562 210.476 40.5368 211.238 40.5368C212 40.5368 212.618 41.1562 212.618 41.9203ZM211.238 37.7698C212 37.7698 212.618 37.1504 212.618 36.3863C212.618 35.6222 212 35.0028 211.238 35.0028C210.476 35.0028 209.859 35.6222 209.859 36.3863C209.859 37.1504 210.476 37.7698 211.238 37.7698ZM212.618 30.8523C212.618 31.6164 212 32.2358 211.238 32.2358C210.476 32.2358 209.859 31.6164 209.859 30.8523C209.859 30.0882 210.476 29.4688 211.238 29.4688C212 29.4688 212.618 30.0882 212.618 30.8523ZM211.238 26.7018C212 26.7018 212.618 26.0824 212.618 25.3183C212.618 24.5542 212 23.9348 211.238 23.9348C210.476 23.9348 209.859 24.5542 209.859 25.3183C209.859 26.0824 210.476 26.7018 211.238 26.7018ZM212.618 19.7843C212.618 20.5484 212 21.1678 211.238 21.1678C210.476 21.1678 209.859 20.5484 209.859 19.7843C209.859 19.0202 210.476 18.4008 211.238 18.4008C212 18.4008 212.618 19.0202 212.618 19.7843ZM211.238 15.6338C212 15.6338 212.618 15.0143 212.618 14.2503C212.618 13.4862 212 12.8667 211.238 12.8667C210.476 12.8667 209.859 13.4862 209.859 14.2503C209.859 15.0143 210.476 15.6338 211.238 15.6338ZM218.136 41.9203C218.136 42.6844 217.519 43.3038 216.757 43.3038C215.995 43.3038 215.377 42.6844 215.377 41.9203C215.377 41.1562 215.995 40.5368 216.757 40.5368C217.519 40.5368 218.136 41.1562 218.136 41.9203ZM216.757 37.7698C217.519 37.7698 218.136 37.1504 218.136 36.3863C218.136 35.6222 217.519 35.0028 216.757 35.0028C215.995 35.0028 215.377 35.6222 215.377 36.3863C215.377 37.1504 215.995 37.7698 216.757 37.7698ZM218.136 30.8523C218.136 31.6164 217.519 32.2358 216.757 32.2358C215.995 32.2358 215.377 31.6164 215.377 30.8523C215.377 30.0882 215.995 29.4688 216.757 29.4688C217.519 29.4688 218.136 30.0882 218.136 30.8523ZM216.757 26.7018C217.519 26.7018 218.136 26.0824 218.136 25.3183C218.136 24.5542 217.519 23.9348 216.757 23.9348C215.995 23.9348 215.377 24.5542 215.377 25.3183C215.377 26.0824 215.995 26.7018 216.757 26.7018ZM218.136 19.7843C218.136 20.5484 217.519 21.1678 216.757 21.1678C215.995 21.1678 215.377 20.5484 215.377 19.7843C215.377 19.0202 215.995 18.4008 216.757 18.4008C217.519 18.4008 218.136 19.0202 218.136 19.7843ZM216.757 15.6338C217.519 15.6338 218.136 15.0143 218.136 14.2503C218.136 13.4862 217.519 12.8667 216.757 12.8667C215.995 12.8667 215.377 13.4862 215.377 14.2503C215.377 15.0143 215.995 15.6338 216.757 15.6338ZM223.655 41.9203C223.655 42.6844 223.037 43.3038 222.275 43.3038C221.513 43.3038 220.896 42.6844 220.896 41.9203C220.896 41.1562 221.513 40.5368 222.275 40.5368C223.037 40.5368 223.655 41.1562 223.655 41.9203ZM222.275 37.7698C223.037 37.7698 223.655 37.1504 223.655 36.3863C223.655 35.6222 223.037 35.0028 222.275 35.0028C221.513 35.0028 220.896 35.6222 220.896 36.3863C220.896 37.1504 221.513 37.7698 222.275 37.7698ZM223.655 30.8523C223.655 31.6164 223.037 32.2358 222.275 32.2358C221.513 32.2358 220.896 31.6164 220.896 30.8523C220.896 30.0882 221.513 29.4688 222.275 29.4688C223.037 29.4688 223.655 30.0882 223.655 30.8523ZM222.275 26.7018C223.037 26.7018 223.655 26.0824 223.655 25.3183C223.655 24.5542 223.037 23.9348 222.275 23.9348C221.513 23.9348 220.896 24.5542 220.896 25.3183C220.896 26.0824 221.513 26.7018 222.275 26.7018ZM223.655 19.7843C223.655 20.5484 223.037 21.1678 222.275 21.1678C221.513 21.1678 220.896 20.5484 220.896 19.7843C220.896 19.0202 221.513 18.4008 222.275 18.4008C223.037 18.4008 223.655 19.0202 223.655 19.7843ZM222.275 15.6338C223.037 15.6338 223.655 15.0143 223.655 14.2503C223.655 13.4862 223.037 12.8667 222.275 12.8667C221.513 12.8667 220.896 13.4862 220.896 14.2503C220.896 15.0143 221.513 15.6338 222.275 15.6338ZM229.173 41.9203C229.173 42.6844 228.556 43.3038 227.794 43.3038C227.032 43.3038 226.414 42.6844 226.414 41.9203C226.414 41.1562 227.032 40.5368 227.794 40.5368C228.556 40.5368 229.173 41.1562 229.173 41.9203ZM227.794 37.7698C228.556 37.7698 229.173 37.1504 229.173 36.3863C229.173 35.6222 228.556 35.0028 227.794 35.0028C227.032 35.0028 226.414 35.6222 226.414 36.3863C226.414 37.1504 227.032 37.7698 227.794 37.7698ZM229.173 30.8523C229.173 31.6164 228.556 32.2358 227.794 32.2358C227.032 32.2358 226.414 31.6164 226.414 30.8523C226.414 30.0882 227.032 29.4688 227.794 29.4688C228.556 29.4688 229.173 30.0882 229.173 30.8523ZM227.794 26.7018C228.556 26.7018 229.173 26.0824 229.173 25.3183C229.173 24.5542 228.556 23.9348 227.794 23.9348C227.032 23.9348 226.414 24.5542 226.414 25.3183C226.414 26.0824 227.032 26.7018 227.794 26.7018ZM229.173 19.7843C229.173 20.5484 228.556 21.1678 227.794 21.1678C227.032 21.1678 226.414 20.5484 226.414 19.7843C226.414 19.0202 227.032 18.4008 227.794 18.4008C228.556 18.4008 229.173 19.0202 229.173 19.7843ZM227.794 15.6338C228.556 15.6338 229.173 15.0143 229.173 14.2503C229.173 13.4862 228.556 12.8667 227.794 12.8667C227.032 12.8667 226.414 13.4862 226.414 14.2503C226.414 15.0143 227.032 15.6338 227.794 15.6338ZM234.692 41.9203C234.692 42.6844 234.074 43.3038 233.312 43.3038C232.55 43.3038 231.933 42.6844 231.933 41.9203C231.933 41.1562 232.55 40.5368 233.312 40.5368C234.074 40.5368 234.692 41.1562 234.692 41.9203ZM233.312 37.7698C234.074 37.7698 234.692 37.1504 234.692 36.3863C234.692 35.6222 234.074 35.0028 233.312 35.0028C232.55 35.0028 231.933 35.6222 231.933 36.3863C231.933 37.1504 232.55 37.7698 233.312 37.7698ZM234.692 30.8523C234.692 31.6164 234.074 32.2358 233.312 32.2358C232.55 32.2358 231.933 31.6164 231.933 30.8523C231.933 30.0882 232.55 29.4688 233.312 29.4688C234.074 29.4688 234.692 30.0882 234.692 30.8523ZM233.312 26.7018C234.074 26.7018 234.692 26.0824 234.692 25.3183C234.692 24.5542 234.074 23.9348 233.312 23.9348C232.55 23.9348 231.933 24.5542 231.933 25.3183C231.933 26.0824 232.55 26.7018 233.312 26.7018ZM234.692 19.7843C234.692 20.5484 234.074 21.1678 233.312 21.1678C232.55 21.1678 231.933 20.5484 231.933 19.7843C231.933 19.0202 232.55 18.4008 233.312 18.4008C234.074 18.4008 234.692 19.0202 234.692 19.7843ZM233.312 15.6338C234.074 15.6338 234.692 15.0143 234.692 14.2503C234.692 13.4862 234.074 12.8667 233.312 12.8667C232.55 12.8667 231.933 13.4862 231.933 14.2503C231.933 15.0143 232.55 15.6338 233.312 15.6338Z" fill="url(#paint2_linear_227:1925)"/>
<path d="M93.8776 59.0534C76.2658 67.0305 62.1856 66.9294 51.6369 58.7504C41.0881 50.5713 34.411 38.9246 31.6055 23.8102C64.579 13.8799 85.3364 25.6276 93.8776 59.0534Z" fill="url(#paint3_linear_227:1925)"/>
<path d="M67.8729 44.7106C64.0718 42.548 59.8451 40.1515 55.1929 37.5212L44.4015 40.1127C44.2101 40.1587 44.0178 40.0397 43.9722 39.8471C43.9265 39.6544 44.0447 39.4609 44.2361 39.4149L54.2773 37.0036C48.4711 33.7219 42.0177 30.0845 34.9172 26.0915C34.7454 25.9949 34.684 25.7764 34.78 25.6035C34.876 25.4305 35.0931 25.3687 35.2649 25.4653C48.2296 32.7561 59.0369 38.8613 67.6876 43.7812L66.5714 32.7714C66.5231 32.2956 67.2322 32.2228 67.2804 32.6985L68.4479 44.2137C79.9813 50.7764 87.5658 55.1689 91.2026 57.392C91.3709 57.4948 91.4244 57.7154 91.3222 57.8847C91.2201 58.0541 91.0009 58.1079 90.8327 58.0051C88.6565 56.6749 85.0612 54.5648 80.0472 51.6749C80.034 51.6817 80.0202 51.6878 80.0059 51.693L70.144 55.3178C69.9591 55.3858 69.7545 55.29 69.687 55.104C69.6195 54.9179 69.7146 54.712 69.8995 54.644L79.241 51.2105C76.0361 49.3658 72.2847 47.2208 67.987 44.7755C67.9455 44.7615 67.9066 44.74 67.8729 44.7106Z" fill="white"/>
<path d="M89.9339 69.0411C71.8301 62.1627 61.9178 52.0973 60.197 38.845C58.4762 25.5927 61.9419 12.6444 70.5943 0C100.965 16.4055 107.412 39.4192 89.9339 69.0411Z" fill="url(#paint4_linear_227:1925)"/>
<path d="M82.4758 40.5789C86.012 53.4252 88.2836 61.9272 89.291 66.0867C89.3376 66.2791 89.2208 66.4732 89.03 66.5202C88.8393 66.5672 88.6469 66.4493 88.6003 66.2569C87.9975 63.7681 86.9403 59.7181 85.4288 54.1073C85.4147 54.1027 85.4007 54.0972 85.3869 54.0907L75.8894 49.6361C75.7114 49.5526 75.6341 49.3394 75.7169 49.1598C75.7997 48.9802 76.0112 48.9023 76.1892 48.9858L85.1855 53.2053C84.2176 49.6207 83.0748 45.435 81.7569 40.6481C81.7374 40.6088 81.7251 40.5659 81.7219 40.5211C80.5563 36.2875 79.2543 31.5858 77.8161 26.416L68.3872 20.5695C68.2199 20.4658 68.1676 20.245 68.2705 20.0763C68.3733 19.9075 68.5923 19.8548 68.7595 19.9586L77.533 25.3986C75.7373 18.9471 73.7343 11.7837 71.5241 3.90843C71.4706 3.71786 71.5804 3.51965 71.7693 3.4657C71.9583 3.41176 72.1548 3.52251 72.2083 3.71307C76.2438 18.0925 79.5886 30.0986 82.2426 39.7321L89.172 31.1543C89.4714 30.7836 90.0226 31.2366 89.7232 31.6073L82.4758 40.5789Z" fill="white"/>
<path d="M107.959 81.4567C93.0088 93.7579 79.3925 97.3318 67.1103 92.1786C54.8281 87.0255 45.3922 77.5117 38.8027 63.6373C68.0788 45.4429 91.131 51.3827 107.959 81.4567Z" fill="url(#paint5_linear_227:1925)"/>
<path d="M79.536 73.4714C92.355 76.7966 100.805 79.0572 104.886 80.2537C105.075 80.3091 105.184 80.5076 105.128 80.6973C105.073 80.8869 104.876 80.9957 104.687 80.9404C102.244 80.2244 98.2319 79.1259 92.6495 77.6448C92.6385 77.6548 92.6268 77.6643 92.6144 77.673L84.0266 83.7259C83.8656 83.8393 83.6436 83.8002 83.5306 83.6386C83.4176 83.4769 83.4565 83.2538 83.6175 83.1404L91.752 77.407C88.1845 76.4627 84.0123 75.3711 79.2354 74.1322C79.1918 74.1296 79.1488 74.1189 79.1087 74.0994C74.8839 73.0038 70.1883 71.7935 65.0219 70.4685L55.2715 75.7674C55.0985 75.8614 54.8824 75.7968 54.7888 75.6231C54.6952 75.4494 54.7596 75.2324 54.9325 75.1384L64.0051 70.2078C57.5574 68.5551 50.3936 66.728 42.5138 64.7264C42.3231 64.678 42.2076 64.4835 42.2558 64.292C42.3041 64.1005 42.4977 63.9845 42.6884 64.0329C57.076 67.6876 69.0767 70.7607 78.691 73.2523L74.7843 62.9381C74.6155 62.4924 75.2812 62.2381 75.45 62.6838L79.536 73.4714Z" fill="white"/>
<path d="M91.0612 46.132H356.109C359.565 46.132 362.367 48.9421 362.367 52.4085V242.585C362.367 246.052 359.565 248.862 356.109 248.862H91.0612C87.6048 248.862 84.8027 246.052 84.8027 242.585V52.4085C84.8027 48.9421 87.6048 46.132 91.0612 46.132Z" fill="url(#paint6_linear_227:1925)"/>
<path fill-rule="evenodd" clip-rule="evenodd" d="M128.299 84.4184H99.8232C99.1319 84.4184 98.5715 84.9804 98.5715 85.6737V110.152C98.5715 110.845 99.1319 111.407 99.8232 111.407H128.299C128.991 111.407 129.551 110.845 129.551 110.152V85.6737C129.551 84.9804 128.991 84.4184 128.299 84.4184ZM128.299 123.96H99.8232C99.1319 123.96 98.5715 124.522 98.5715 125.215V149.694C98.5715 150.387 99.1319 150.949 99.8232 150.949H128.299C128.991 150.949 129.551 150.387 129.551 149.694V125.215C129.551 124.522 128.991 123.96 128.299 123.96ZM99.8232 163.502H128.299C128.991 163.502 129.551 164.064 129.551 164.757V189.235C129.551 189.929 128.991 190.491 128.299 190.491H99.8232C99.1319 190.491 98.5715 189.929 98.5715 189.235V164.757C98.5715 164.064 99.1319 163.502 99.8232 163.502ZM128.299 203.044H99.8232C99.1319 203.044 98.5715 203.606 98.5715 204.299V228.777C98.5715 229.47 99.1319 230.032 99.8232 230.032H128.299C128.991 230.032 129.551 229.47 129.551 228.777V204.299C129.551 203.606 128.991 203.044 128.299 203.044Z" fill="url(#paint7_linear_227:1925)"/>
<path d="M143.32 84.4184H349.495C350.186 84.4184 350.747 84.9804 350.747 85.6737V229.003C350.747 229.696 350.186 230.258 349.495 230.258H143.32C142.629 230.258 142.068 229.696 142.068 229.003V85.6737C142.068 84.9804 142.629 84.4184 143.32 84.4184Z" fill="white"/>
<path fill-rule="evenodd" clip-rule="evenodd" d="M151.456 93.8331H205.279V103.248H151.456V93.8331ZM151.456 112.663H352.354V122.077H151.456V112.663ZM317.932 131.492H151.456V140.907H317.932V131.492ZM151.456 150.321H352.354V159.736H151.456V150.321ZM336.708 169.151H151.456V178.565H336.708V169.151ZM151.456 187.98H352.354V197.395H151.456V187.98ZM245.47 206.809H151.456V216.224H245.47V206.809Z" fill="#D0F6FF"/>
<path fill-rule="evenodd" clip-rule="evenodd" d="M271.326 185.376L276.12 192.748C274.807 195.049 273.773 197.531 273.062 200.146L264.477 201.958C263.898 202.081 263.483 202.593 263.483 203.187V213.884C263.483 214.478 263.898 214.99 264.477 215.113L273.062 216.925C273.773 219.54 274.807 222.022 276.12 224.323L271.326 231.695C271.002 232.192 271.071 232.849 271.489 233.268L279.032 240.833C279.45 241.252 280.105 241.321 280.601 240.996L287.952 236.188C290.246 237.505 292.72 238.542 295.328 239.255L297.135 247.865C297.257 248.446 297.768 248.862 298.36 248.862H309.027C309.619 248.862 310.13 248.446 310.252 247.865L312.06 239.255C314.667 238.542 317.141 237.505 319.436 236.188L326.787 240.996C327.283 241.321 327.937 241.252 328.356 240.833L336.617 232.548L331.268 224.323C332.58 222.022 333.615 219.54 334.325 216.925L342.911 215.113C343.49 214.99 343.905 214.478 343.905 213.884V203.187C343.905 202.593 343.49 202.081 342.911 201.958L334.325 200.146C333.615 197.531 332.58 195.049 331.268 192.748L336.062 185.376C336.385 184.879 336.317 184.222 335.899 183.803L328.356 176.238C327.937 175.819 327.283 175.75 326.787 176.075L319.436 180.883C317.141 179.566 314.667 178.529 312.06 177.816L310.252 169.206C310.13 168.625 309.619 168.209 309.027 168.209H298.36C297.768 168.209 297.257 168.625 297.135 169.206L295.328 177.816C292.72 178.529 290.246 179.566 287.952 180.883L280.601 176.075C280.105 175.75 279.45 175.819 279.032 176.238L271.489 183.803C271.071 184.222 271.002 184.879 271.326 185.376ZM318.558 208.535C318.558 216.768 311.903 223.442 303.694 223.442C295.485 223.442 288.83 216.768 288.83 208.535C288.83 200.303 295.485 193.629 303.694 193.629C311.903 193.629 318.558 200.303 318.558 208.535Z" fill="url(#paint8_linear_227:1925)"/>
<path d="M91.0612 46.132H356.109C359.565 46.132 362.367 48.9421 362.367 52.4085V72.1487H84.8027L84.8027 52.4085C84.8027 48.9421 87.6048 46.132 91.0612 46.132Z" fill="url(#paint9_linear_227:1925)"/>
<path d="M79.6458 139.103H176.953C179.29 139.103 181.184 141.012 181.184 143.367V205.9C181.184 208.255 179.29 210.164 176.953 210.164H79.6458C77.3092 210.164 75.415 208.255 75.415 205.9V143.367C75.415 141.012 77.3092 139.103 79.6458 139.103Z" fill="url(#paint10_linear_227:1925)"/>
<path d="M128.299 171.791L176.953 210.164H79.6458L128.299 171.791Z" fill="url(#paint11_linear_227:1925)"/>
<path d="M79.6458 139.103L176.953 139.103L128.299 182.126L79.6458 139.103Z" fill="#52D7FD"/>
<path d="M75.4151 151.549V158.519L59.7532 150.409L51.3198 128.809L64.4106 125.291L69.9214 147.265L75.4151 151.549Z" fill="#221E41"/>
<path d="M62.4677 124.96L54.6448 118.831L56.9835 115.828C57.3346 111.668 59.7958 107.436 64.3673 103.134C68.9388 98.8316 73.816 100.548 78.9989 108.282C76.9878 111.256 76.3363 113.619 77.0443 115.37C78.1064 117.998 76.7526 118.613 75.8235 118.408C74.8945 118.202 74.0256 118.41 72.952 120.207C71.8784 122.004 70.6293 121.548 68.5727 120.978C67.2016 120.599 65.1666 121.926 62.4677 124.96Z" fill="#F4B696"/>
<path d="M54.2387 234.843L60.9901 235.317L60.5183 242.083L53.7668 241.61L54.2387 234.843Z" fill="#F4B696"/>
<path d="M53.5407 241.086L60.632 241.583L65.0192 243.402C67.2267 244.365 69.1103 244.827 68.9346 247.345C68.8895 247.992 68.4255 248.487 67.8982 248.45L54.598 247.517C53.7705 247.459 53.1465 246.739 53.2044 245.909L53.5407 241.086Z" fill="url(#paint12_linear_227:1925)"/>
<path d="M7.44029 233.011L12.9156 237.001L8.93996 242.488L3.4646 238.499L7.44029 233.011Z" fill="#F4B696"/>
<path d="M3.54977 237.935L9.30074 242.125L12.0603 245.999C13.4236 247.988 14.7769 249.381 13.2972 251.424C12.917 251.948 12.2622 252.121 11.8346 251.81L1.04822 243.95C0.377101 243.461 0.228326 242.519 0.715926 241.846L3.54977 237.935Z" fill="url(#paint13_linear_227:1925)"/>
<path d="M56.9271 115.682C56.3372 114.96 56.1758 114.236 56.4431 113.509C56.8441 112.419 57.6842 112.293 56.9142 109.127C56.1442 105.962 56.136 102.363 60.0756 98.3912C64.0153 94.4192 67.0414 95.6632 69.9776 97.0457C72.9139 98.4282 73.8612 99.4137 78.4339 100.381C83.0067 101.349 83.4955 104.98 80.4467 108.324C77.3978 111.667 71.7006 108.172 70.7675 107.44C69.8343 106.709 69.4537 108.53 68.648 110.161C67.8422 111.792 66.6435 111.55 66.4055 111.115C66.1676 110.679 65.539 109.967 64.3303 110.421C63.1215 110.875 63.0159 112.656 63.5285 113.058C64.0411 113.459 64.8765 113.729 64.5341 114.38C64.1918 115.032 62.7217 116.794 61.4709 117.449C60.6371 117.886 59.1225 117.297 56.9271 115.682Z" fill="url(#paint14_linear_227:1925)"/>
<path d="M43.627 187.709L36.4433 211.793C36.1622 212.735 35.6762 213.604 35.0202 214.335L11.5806 240.473L4.84619 235.954L22.8997 204.891V171.186L42.3753 174.403L43.627 187.709Z" fill="#241F4A"/>
<path d="M22.7585 171.186L48.9156 173.508L68.0335 193.361C69.54 194.926 70.1889 197.13 69.7713 199.264L61.9593 239.19L53.0544 238.625L54.708 201.985L32.063 192.609C26.4321 190.278 22.7585 184.771 22.7585 178.662V171.186Z" fill="url(#paint15_linear_227:1925)"/>
<path d="M22.7585 171.186C32.3989 147.09 37.9904 132.799 39.5329 128.313C41.8467 121.585 49.8938 115.214 59.1162 119.411C68.3385 123.608 66.5778 136.673 63.0619 146.651C60.718 153.303 56.1971 162.565 49.4991 174.435L22.7585 171.186Z" fill="#00ADFF"/>
<path d="M53.0545 168.028L45.4854 138.192L53.8233 135.463L57.7819 158.968L53.0545 168.028Z" fill="#221E41"/>
<path d="M60.6176 136.152L64.1611 155.626L86.2684 173.829L90.2179 175.538L87.244 176.338L88.9871 182.862C85.4398 183.14 82.9995 182.462 81.6663 180.827C80.3331 179.191 79.2358 176.541 78.3742 172.875L53.993 158.77L47.5269 139.67L60.6176 136.152Z" fill="#F4B696"/>
<path d="M61.2818 131.585L63.7778 147.396L50.5164 151.787L44.0249 135.458" fill="#00ADFF"/>
<path fill-rule="evenodd" clip-rule="evenodd" d="M33.2446 176.618L32.9592 176.747L33.8574 178.75L34.1428 178.622L33.2446 176.618ZM35.4259 181.484L35.1405 181.613L35.6655 182.784C35.7934 183.069 35.9416 183.344 36.1089 183.607L36.3726 183.438C36.2135 183.188 36.0725 182.926 35.9509 182.655L35.4259 181.484ZM38.4382 185.791L38.5912 185.517L40.5022 186.591L40.3492 186.864L38.4382 185.791ZM43.2322 188.124L43.0792 188.398L44.9902 189.472L45.1432 189.198L43.2322 188.124ZM47.7202 191.006L47.8732 190.732L49.7842 191.806L49.6312 192.08L47.7202 191.006ZM52.5142 193.34L52.3612 193.613L54.2722 194.687L54.4252 194.413L52.5142 193.34ZM57.0022 196.221L57.1552 195.947L59.0662 197.021L58.9132 197.295L57.0022 196.221ZM61.4112 199.173L61.1494 199.345C61.5421 199.946 61.8267 200.613 61.989 201.314L62.2938 201.243C62.1231 200.506 61.824 199.805 61.4112 199.173ZM61.9875 204.385L62.2981 204.423L62.0344 206.604L61.7238 206.566L61.9875 204.385ZM61.6577 209.719L61.347 209.681L61.0833 211.862L61.394 211.9L61.6577 209.719ZM60.7066 214.977L61.0173 215.015L60.7536 217.196L60.4429 217.158L60.7066 214.977ZM60.3769 220.311L60.0662 220.274L59.8025 222.454L60.1132 222.492L60.3769 220.311ZM59.4258 225.57L59.7365 225.608L59.4728 227.788L59.1621 227.751L59.4258 225.57ZM59.096 230.904L58.7854 230.866L58.5217 233.047L58.8323 233.084L59.096 230.904Z" fill="#A587FF"/>
<path d="M243.456 12.9497H360.49C361.872 12.9497 362.993 14.0737 362.993 15.4603V115.256C362.993 116.643 361.872 117.767 360.49 117.767H243.456C242.073 117.767 240.952 116.643 240.952 115.256V15.4603C240.952 14.0737 242.073 12.9497 243.456 12.9497Z" fill="url(#paint16_linear_227:1925)"/>
<path fill-rule="evenodd" clip-rule="evenodd" d="M250.34 41.8214H265.986V57.5126H250.34V41.8214ZM250.34 66.9273H265.986V82.6185H250.34V66.9273ZM295.088 41.8214H279.442V57.5126H295.088V41.8214ZM279.442 66.9273H295.088V82.6185H279.442V66.9273ZM324.503 41.8214H308.857V57.5126H324.503V41.8214ZM337.959 41.8214H353.605V57.5126H337.959V41.8214ZM353.605 66.9273H337.959V82.6185H353.605V66.9273ZM250.34 92.0332H265.986V107.724H250.34V92.0332ZM295.088 92.0332H279.442V107.724H295.088V92.0332ZM308.857 92.0332H324.503V107.724H308.857V92.0332ZM353.605 92.0332H337.959V107.724H353.605V92.0332Z" fill="#77D0E6"/>
<path d="M308.857 66.9273H324.503V82.6185H308.857V66.9273Z" fill="url(#paint17_linear_227:1925)"/>
<path d="M243.456 12.9497H360.49C361.872 12.9497 362.993 14.0737 362.993 15.4603V32.5089H240.952V15.4603C240.952 14.0737 242.073 12.9497 243.456 12.9497Z" fill="url(#paint18_linear_227:1925)"/>
<path d="M391.894 243.954C392.602 242.694 393.325 241.624 394.062 240.743C395.168 239.422 395.56 239.894 395.907 240.497C396.254 241.099 397.032 242.451 397.661 243.543C398.29 244.636 398.022 244.952 396.026 245.932C394.031 246.912 393.694 246.87 391.858 248.345C390.023 249.82 385.924 252.114 384.222 251.209C382.519 250.304 385.043 248.066 387.346 246.28C388.882 245.089 390.398 244.313 391.894 243.954Z" fill="url(#paint19_linear_227:1925)"/>
<path d="M392.774 235.054L396.14 240.9L395.16 242.129C393.379 244.362 390.765 245.767 387.925 246.019L390.635 243.558L387.497 238.109L392.774 235.054Z" fill="#F4B696"/>
<path d="M387.632 241.395L365.156 206.035L371.214 163.188L379.453 205.272L395.889 237.304L387.632 241.395Z" fill="#241F4A"/>
<path d="M361.862 246.714C363.104 245.978 364.263 245.413 365.341 245.02C366.957 244.431 367.061 245.037 367.061 245.732C367.061 246.428 367.061 247.989 367.061 249.25C367.061 250.511 366.671 250.651 364.455 250.499C362.238 250.347 361.967 250.142 359.642 250.499C357.317 250.856 352.624 250.788 351.6 249.15C350.577 247.513 353.878 246.84 356.764 246.448C358.688 246.187 360.387 246.275 361.862 246.714Z" fill="url(#paint20_linear_227:1925)"/>
<path d="M367.061 239.447V246.198L365.6 246.771C362.945 247.812 359.98 247.718 357.396 246.512L360.969 245.74V239.447H367.061Z" fill="#F4B696"/>
<path d="M319.087 85.3694L316.363 82.3211C316.823 80.0682 316.312 78.4069 314.831 77.3372L314.033 78.9417C312.582 77.872 311.351 76.6742 310.341 75.3481C308.825 73.359 305.787 77.7855 306.667 81.0187C307.547 84.252 310.865 85.0461 312.745 86.8729C313.045 87.165 314.116 88.1146 315.957 89.7217L319.087 85.3694Z" fill="#F4B696"/>
<path d="M361.33 99.5899L360.177 92.5778C356.711 93.102 354.806 92.0638 354.461 89.4631C354.116 86.8625 353.925 85.3019 353.889 84.7813L351.972 84.1597L354.461 80.9424L355.79 74.736C358.964 73.5628 362.439 74.767 366.214 78.3488C371.877 83.7215 369.048 95.8827 368.296 98.7965C367.795 100.739 365.473 101.004 361.33 99.5899Z" fill="#F4B696"/>
<path d="M368.939 243.414H358.345L344.846 151.647L372.342 151.513C372.988 156.548 372.882 161.652 372.027 166.657L365.695 203.696L368.939 243.414Z" fill="url(#paint21_linear_227:1925)"/>
<path d="M344.846 151.647L349.252 117.213C347.241 113.525 346.738 109.456 347.744 105.005C348.542 102.437 350.233 101.153 352.816 101.153C356.691 101.153 367.606 95.143 369.973 95.143C373.092 96.285 374.378 100.541 373.831 107.912C373.283 115.282 372.801 129.889 372.386 151.733L344.846 151.647Z" fill="url(#paint22_linear_227:1925)"/>
<path d="M361.479 110.134L347.817 113.59C347.366 112.14 347.141 110.366 347.141 108.269C347.141 106.172 351.92 106.793 361.479 110.134Z" fill="#211D41"/>
<path d="M365.171 110.435L335.434 108.844C334.018 108.768 332.682 108.159 331.693 107.138L313.025 87.8563L318.43 83.8372L335.019 97.7799C357.608 96.0628 369.106 95.2042 369.513 95.2042C369.921 95.2042 369.921 96.0628 369.513 97.7799L365.171 110.435Z" fill="url(#paint23_linear_227:1925)"/>
<path d="M353.086 73.972C351.538 76.6219 353.608 79.0003 359.298 81.1071C367.831 84.2674 360.178 86.18 363.905 91.4216C367.633 96.6632 359.004 104.792 365.695 112.259C370.156 117.237 372.349 120.218 372.273 121.201C375.791 119.655 377.835 116.39 378.407 111.407C379.265 103.933 371.906 96.326 372.94 89.603C373.973 82.88 374.469 76.4697 366.435 72.3885C361.08 69.6677 356.63 70.1955 353.086 73.972Z" fill="url(#paint24_linear_227:1925)"/>
<path fill-rule="evenodd" clip-rule="evenodd" d="M358.904 160.139L359.217 160.143L359.241 157.946L358.928 157.942L358.904 160.139ZM359.157 165.477L358.844 165.474L358.868 163.277L359.181 163.281L359.157 165.477ZM358.784 170.808L359.097 170.812L359.122 168.615L358.809 168.612L358.784 170.808ZM359.037 176.147L358.724 176.143L358.749 173.946L359.062 173.95L359.037 176.147ZM358.665 181.478L358.977 181.481L359.002 179.285L358.689 179.281L358.665 181.478ZM358.918 186.816L358.605 186.812L358.629 184.616L358.942 184.619L358.918 186.816ZM358.545 192.147L358.858 192.151L358.883 189.954L358.57 189.95L358.545 192.147ZM358.798 197.485L358.485 197.482L358.51 195.285L358.823 195.289L358.798 197.485ZM358.751 202.819L359.062 202.785L358.824 200.601L358.513 200.636L358.751 202.819ZM359.64 208.089L359.329 208.123L359.091 205.939L359.402 205.905L359.64 208.089ZM359.906 213.426L360.217 213.392L359.98 211.208L359.668 211.242L359.906 213.426ZM360.795 218.695L360.484 218.73L360.246 216.546L360.557 216.512L360.795 218.695ZM361.062 224.033L361.373 223.999L361.135 221.815L360.824 221.849L361.062 224.033ZM361.951 229.302L361.64 229.336L361.402 227.153L361.713 227.119L361.951 229.302ZM362.218 234.64L362.529 234.606L362.291 232.422L361.98 232.456L362.218 234.64ZM362.796 239.943L363.107 239.909L362.869 237.725L362.558 237.76L362.796 239.943Z" fill="#A587FF"/>
<defs>
<linearGradient id="paint0_linear_227:1925" x1="61.9169" y1="32.2229" x2="61.9169" y2="98.5577" gradientUnits="userSpaceOnUse">
<stop stop-color="#D0F6FF"/>
<stop offset="1" stop-color="#8BE2F7"/>
</linearGradient>
<linearGradient id="paint1_linear_227:1925" x1="-57.848" y1="229.34" x2="-57.848" y2="259.123" gradientUnits="userSpaceOnUse">
<stop stop-color="#D0F6FF"/>
<stop offset="1" stop-color="#8BE2F7"/>
</linearGradient>
<linearGradient id="paint2_linear_227:1925" x1="204.34" y1="12.8667" x2="204.34" y2="43.3038" gradientUnits="userSpaceOnUse">
<stop stop-color="#FF9485"/>
<stop offset="1" stop-color="#FF676E"/>
</linearGradient>
<linearGradient id="paint3_linear_227:1925" x1="17.1827" y1="52.5641" x2="64.8608" y2="91.6398" gradientUnits="userSpaceOnUse">
<stop stop-color="#6EAE7C"/>
<stop offset="1" stop-color="#0F575D"/>
</linearGradient>
<linearGradient id="paint4_linear_227:1925" x1="55.7751" y1="25.7056" x2="81.2022" y2="36.9017" gradientUnits="userSpaceOnUse">
<stop stop-color="#CFE49F"/>
<stop offset="1" stop-color="#A9D386"/>
</linearGradient>
<linearGradient id="paint5_linear_227:1925" x1="44.0544" y1="61.26" x2="53.0171" y2="87.2942" gradientUnits="userSpaceOnUse">
<stop stop-color="#77D791"/>
<stop offset="1" stop-color="#4FA67E"/>
</linearGradient>
<linearGradient id="paint6_linear_227:1925" x1="345.871" y1="278.222" x2="347.255" y2="99.5814" gradientUnits="userSpaceOnUse">
<stop stop-color="#2B3389"/>
<stop offset="1" stop-color="#444FB7"/>
</linearGradient>
<linearGradient id="paint7_linear_227:1925" x1="100.218" y1="120.822" x2="156.984" y2="142.408" gradientUnits="userSpaceOnUse">
<stop stop-color="#0F1752"/>
<stop offset="1" stop-color="#272884"/>
</linearGradient>
<linearGradient id="paint8_linear_227:1925" x1="263.483" y1="168.209" x2="263.483" y2="248.862" gradientUnits="userSpaceOnUse">
<stop stop-color="#FF9485"/>
<stop offset="1" stop-color="#FF676E"/>
</linearGradient>
<linearGradient id="paint9_linear_227:1925" x1="99.5583" y1="52.6362" x2="101.155" y2="83.081" gradientUnits="userSpaceOnUse">
<stop stop-color="#0F1752"/>
<stop offset="1" stop-color="#272884"/>
</linearGradient>
<linearGradient id="paint10_linear_227:1925" x1="75.415" y1="139.103" x2="75.415" y2="210.164" gradientUnits="userSpaceOnUse">
<stop stop-color="#4DBCFA"/>
<stop offset="1" stop-color="#1486DB"/>
</linearGradient>
<linearGradient id="paint11_linear_227:1925" x1="94.4268" y1="171.791" x2="94.4268" y2="198.506" gradientUnits="userSpaceOnUse">
<stop stop-color="#4DBCFA"/>
<stop offset="1" stop-color="#1486DB"/>
</linearGradient>
<linearGradient id="paint12_linear_227:1925" x1="53.2007" y1="241.086" x2="53.2007" y2="248.452" gradientUnits="userSpaceOnUse">
<stop stop-color="#1D2A78"/>
<stop offset="1" stop-color="#12033B"/>
</linearGradient>
<linearGradient id="paint13_linear_227:1925" x1="0.428955" y1="237.935" x2="0.428955" y2="251.965" gradientUnits="userSpaceOnUse">
<stop stop-color="#1D2A78"/>
<stop offset="1" stop-color="#12033B"/>
</linearGradient>
<linearGradient id="paint14_linear_227:1925" x1="56.3181" y1="95.7103" x2="56.3181" y2="117.588" gradientUnits="userSpaceOnUse">
<stop stop-color="#1D2A78"/>
<stop offset="1" stop-color="#12033B"/>
</linearGradient>
<linearGradient id="paint15_linear_227:1925" x1="5.2088" y1="135.176" x2="5.2088" y2="298.126" gradientUnits="userSpaceOnUse">
<stop stop-color="#1533B6"/>
<stop offset="1" stop-color="#356BE9"/>
</linearGradient>
<linearGradient id="paint16_linear_227:1925" x1="214.229" y1="20.564" x2="214.229" y2="171.284" gradientUnits="userSpaceOnUse">
<stop stop-color="#D0F6FF"/>
<stop offset="1" stop-color="#8BE2F7"/>
</linearGradient>
<linearGradient id="paint17_linear_227:1925" x1="308.857" y1="66.9273" x2="308.857" y2="82.6185" gradientUnits="userSpaceOnUse">
<stop stop-color="#FF9485"/>
<stop offset="1" stop-color="#FF676E"/>
</linearGradient>
<linearGradient id="paint18_linear_227:1925" x1="240.952" y1="12.9497" x2="240.952" y2="32.5089" gradientUnits="userSpaceOnUse">
<stop stop-color="#FF9485"/>
<stop offset="1" stop-color="#FF676E"/>
</linearGradient>
<linearGradient id="paint19_linear_227:1925" x1="383.663" y1="239.896" x2="383.663" y2="251.415" gradientUnits="userSpaceOnUse">
<stop stop-color="#1D2A78"/>
<stop offset="1" stop-color="#12033B"/>
</linearGradient>
<linearGradient id="paint20_linear_227:1925" x1="351.41" y1="244.782" x2="351.41" y2="250.675" gradientUnits="userSpaceOnUse">
<stop stop-color="#1D2A78"/>
<stop offset="1" stop-color="#12033B"/>
</linearGradient>
<linearGradient id="paint21_linear_227:1925" x1="334.454" y1="102.849" x2="334.454" y2="323.06" gradientUnits="userSpaceOnUse">
<stop stop-color="#1533B6"/>
<stop offset="1" stop-color="#356BE9"/>
</linearGradient>
<linearGradient id="paint22_linear_227:1925" x1="344.846" y1="95.143" x2="344.846" y2="151.733" gradientUnits="userSpaceOnUse">
<stop stop-color="#FF9485"/>
<stop offset="1" stop-color="#FF676E"/>
</linearGradient>
<linearGradient id="paint23_linear_227:1925" x1="313.025" y1="83.8372" x2="313.025" y2="110.435" gradientUnits="userSpaceOnUse">
<stop stop-color="#FF9485"/>
<stop offset="1" stop-color="#FF676E"/>
</linearGradient>
<linearGradient id="paint24_linear_227:1925" x1="352.589" y1="70.6795" x2="352.589" y2="121.201" gradientUnits="userSpaceOnUse">
<stop stop-color="#1D2A78"/>
<stop offset="1" stop-color="#12033B"/>
</linearGradient>
</defs>
</svg>
